<?xml version="1.0" encoding="utf-8"?>
<!-- Generator: Adobe Illustrator 17.1.0, SVG Export Plug-In . SVG Version: 6.00 Build 0)  -->
<!DOCTYPE svg PUBLIC "-//W3C//DTD SVG 1.1//EN" "http://www.w3.org/Graphics/SVG/1.1/DTD/svg11.dtd">
<svg version="1.1" id="Capa_1" xmlns="http://www.w3.org/2000/svg" xmlns:xlink="http://www.w3.org/1999/xlink" x="0px" y="0px"
	 viewBox="23.9 417 300 300" enable-background="new 23.9 417 300 300" xml:space="preserve">
<path fill="#D52D21" d="M160.4,417.5c8.6-0.2,16.4-0.3,25-0.5c4.2,1.4,8.6,1.4,13,2.1c65,11.3,113.7,61,123.9,126.1
	c0.5,3.2,0.2,6.6,1.5,9.7c0,8.5,0,16.2,0.1,24.7c-1.5,3.8-1.3,8-2,11.9c-11.3,64.9-61,113.7-126.2,123.8c-3.3,0.5-6.7,0.2-9.9,1.6
	h-24.6c-2.3-1.2-5-1-7.5-1.3c-66-8.9-118.3-60.4-128.3-126.5c-0.5-3.2-0.3-6.5-1.6-9.5v-25.2c1.2-2.3,1-5,1.3-7.5
	c8.9-66,60.5-118.3,126.6-128.2C154.6,418.3,157.6,418.4,160.4,417.5z M174.2,631.8c25.2,0,50.4,0,75.6,0c4.8,0,7.1-2.6,6.9-7.8
	c-0.1-2.4-0.2-4.9,0-7.3c0.4-5.8-2-8.6-7.5-8.6c-17.7,0-35.4,0-53.1,0c-32.3,0-64.6,0-96.9,0c-5.4,0-7.8,2.7-7.5,8.3
	c0.1,2.5,0.1,4.9,0,7.4c-0.2,5.5,2,7.9,7.2,7.9C124,631.8,149.1,631.8,174.2,631.8z M168.2,561.2c23.2,0,46.4,0,69.6,0
	c4.9,0,7.4-2.4,7.4-7.3c0-2.9,0-5.8,0-8.7c0-5.2-2.5-7.6-7.7-7.6c-31.8,0-63.6,0-95.3,0c-14.4,0-28.8,0-43.2,0c-5,0-7.2,2.2-7.2,7.2
	c0,2.7,0,5.5,0,8.2c-0.1,6.2,1.8,8.2,7.8,8.2C122.4,561.2,145.3,561.2,168.2,561.2z M156.8,596.5c19.2,0,38.4,0,57.6,0
	c4.6,0,6.9-2.3,6.9-7c0-2.9,0-5.8,0-8.7c0-6-1.9-7.9-7.8-7.9c-35.2,0-70.4,0-105.6,0c-3.2,0-6.4,0-9.6,0c-4.7,0.1-7,2.8-6.6,7.8
	c0.2,2,0.2,4,0,5.9c-0.5,7.2,1.3,9.8,7.4,9.8C118.4,596.5,137.6,596.5,156.8,596.5z M150.7,502.3c-17.3,0-34.6,0-51.9,0
	c-5.3,0-7.6,2.8-7.1,8.5c0.2,1.9,0.1,3.8,0,5.7c-0.5,6.9,1.4,9.5,7.4,9.5c16.3,0,32.6,0,48.9,0c18,0,36,0,53.9,0
	c5.4,0,7.8-2.5,7.8-7.9c0-2.8,0-5.6,0-8.4c0-4.9-2.6-7.4-7.6-7.4C185,502.3,167.8,502.3,150.7,502.3z"/>
</svg>
